<svg xmlns="http://www.w3.org/2000/svg" viewBox="0 0 820 1120" role="img" aria-labelledby="robotTitle robotDesc">
  <title id="robotTitle">Humanoid Robot</title>
  <desc id="robotDesc">Futuristic humanoid robot body with an open left palm.</desc>
  <defs>
    <linearGradient id="metalLight" x1="0" y1="0" x2="1" y2="1">
      <stop offset="0" stop-color="#f4f9ff"/>
      <stop offset="0.44" stop-color="#d6e1ec"/>
      <stop offset="0.72" stop-color="#8fa2b5"/>
      <stop offset="1" stop-color="#1b2938"/>
    </linearGradient>
    <linearGradient id="metalDark" x1="0" y1="0" x2="1" y2="1">
      <stop offset="0" stop-color="#2a3a4c"/>
      <stop offset="0.55" stop-color="#111c28"/>
      <stop offset="1" stop-color="#071018"/>
    </linearGradient>
    <radialGradient id="tealCore" cx="50%" cy="50%" r="50%">
      <stop offset="0" stop-color="#dbfbff"/>
      <stop offset="0.32" stop-color="#6FB3C8"/>
      <stop offset="0.7" stop-color="#1f4e5f"/>
      <stop offset="1" stop-color="#08131c"/>
    </radialGradient>
    <radialGradient id="floorShadow" cx="50%" cy="50%" r="50%">
      <stop offset="0" stop-color="rgba(8,19,28,0.42)"/>
      <stop offset="1" stop-color="rgba(8,19,28,0)"/>
    </radialGradient>
    <filter id="softShadow" x="-20%" y="-20%" width="150%" height="150%">
      <feDropShadow dx="0" dy="26" stdDeviation="22" flood-color="#06131f" flood-opacity="0.35"/>
    </filter>
    <filter id="tealGlow" x="-200%" y="-200%" width="500%" height="500%">
      <feDropShadow dx="0" dy="0" stdDeviation="8" flood-color="#6FB3C8" flood-opacity="0.9"/>
      <feDropShadow dx="0" dy="0" stdDeviation="20" flood-color="#6FB3C8" flood-opacity="0.5"/>
    </filter>
  </defs>

  <ellipse cx="606" cy="1040" rx="174" ry="44" fill="url(#floorShadow)"/>

  <g filter="url(#softShadow)">
    <ellipse cx="582" cy="186" rx="122" ry="148" fill="url(#metalLight)"/>
    <ellipse cx="610" cy="197" rx="86" ry="114" fill="url(#metalDark)"/>
    <ellipse cx="644" cy="196" rx="42" ry="42" fill="url(#tealCore)" filter="url(#tealGlow)"/>
    <circle cx="644" cy="196" r="19" fill="none" stroke="#c8f6ff" stroke-width="3"/>
    <circle cx="644" cy="196" r="8" fill="#7fe0ff"/>

    <rect x="548" y="310" width="70" height="56" rx="26" fill="url(#metalLight)"/>

    <path d="M450 390C472 332 545 292 620 301C697 310 756 352 772 425L780 596C776 702 703 786 594 810C481 792 413 700 420 588L450 390Z" fill="url(#metalLight)"/>
    <path d="M502 416C529 373 589 352 646 359C704 366 746 404 757 454L763 580C761 648 717 708 649 731C576 712 532 660 531 594L502 416Z" fill="url(#metalDark)" opacity="0.9"/>
    <ellipse cx="598" cy="558" rx="92" ry="108" fill="url(#metalLight)" opacity="0.46"/>

    <circle cx="465" cy="462" r="78" fill="url(#metalLight)"/>
    <circle cx="718" cy="502" r="84" fill="url(#metalLight)"/>
    <circle cx="465" cy="462" r="26" fill="url(#tealCore)" filter="url(#tealGlow)"/>
    <circle cx="718" cy="502" r="30" fill="url(#tealCore)" filter="url(#tealGlow)"/>

    <g transform="translate(630 596) rotate(24)">
      <rect x="-28" y="0" width="156" height="92" rx="46" fill="url(#metalLight)"/>
      <circle cx="10" cy="46" r="28" fill="url(#metalDark)"/>
      <rect x="104" y="24" width="136" height="46" rx="23" fill="url(#metalLight)"/>
      <circle cx="234" cy="47" r="40" fill="url(#metalLight)"/>
    </g>

    <g transform="translate(336 640) rotate(-28)">
      <rect x="0" y="0" width="180" height="80" rx="40" fill="url(#metalLight)"/>
      <circle cx="32" cy="40" r="30" fill="url(#metalDark)"/>
      <rect x="150" y="22" width="168" height="42" rx="21" fill="url(#metalLight)"/>
      <circle cx="318" cy="42" r="28" fill="url(#metalLight)"/>
    </g>

    <g transform="translate(240 732) rotate(-5)">
      <ellipse cx="88" cy="62" rx="96" ry="44" fill="url(#metalLight)"/>
      <path d="M36 44C62 8 120 2 148 34C170 57 162 87 130 98C95 111 54 103 34 81C24 70 24 55 36 44Z" fill="url(#metalDark)" opacity="0.42"/>
      <rect x="54" y="6" width="25" height="38" rx="12" fill="url(#metalLight)"/>
      <rect x="82" y="0" width="25" height="40" rx="12" fill="url(#metalLight)"/>
      <rect x="110" y="4" width="25" height="40" rx="12" fill="url(#metalLight)"/>
      <rect x="138" y="12" width="24" height="34" rx="12" fill="url(#metalLight)"/>
    </g>

    <path d="M688 358C692 340 710 329 728 334L747 340" stroke="#7edcff" stroke-width="3" stroke-linecap="round" opacity="0.7"/>
    <path d="M507 508C522 486 548 480 570 492" stroke="#7edcff" stroke-width="3" stroke-linecap="round" opacity="0.7"/>
    <path d="M566 642C597 623 641 624 669 646" stroke="#7edcff" stroke-width="3" stroke-linecap="round" opacity="0.7"/>
    <path d="M302 754C318 740 343 738 360 748" stroke="#7edcff" stroke-width="3" stroke-linecap="round" opacity="0.74"/>
  </g>
</svg>
